<svg t="1717073576787" class="icon" viewBox="0 0 1024 1024" version="1.1" xmlns="http://www.w3.org/2000/svg" p-id="6474" width="200" height="200"><path d="M768 784V320l-32-32-64-64-32-32H288c-16 0-32 16-32 32v560c-80 12.8-128 28.8-128 48 0 35.2 172.8 64 384 64s384-28.8 384-64c0-19.2-48-35.2-128-48zM672 256l32 32h-25.6c-3.2 0-6.4-3.2-6.4-6.4V256zM288 768V256c0-16 16-32 32-32h320v80c0 9.6 6.4 16 16 16H736v448c0 16-16 32-32 32H320c-6.4 0-16-3.2-19.2-6.4-3.2-3.2-6.4-6.4-9.6-12.8-3.2-3.2-3.2-9.6-3.2-12.8z" p-id="6475"></path><path d="M390.4 473.6c32 0 57.6-25.6 57.6-57.6s-25.6-57.6-57.6-57.6-57.6 25.6-57.6 57.6 25.6 57.6 57.6 57.6z m0-96c22.4 0 38.4 19.2 38.4 38.4s-19.2 38.4-38.4 38.4S352 438.4 352 416s16-38.4 38.4-38.4z" p-id="6476"></path><path d="M390.4 416m-16 0a16 16 0 1 0 32 0 16 16 0 1 0-32 0Z" p-id="6477"></path><path d="M633.6 473.6c32 0 57.6-25.6 57.6-57.6s-25.6-57.6-57.6-57.6-57.6 28.8-57.6 57.6 25.6 57.6 57.6 57.6z m0-96c22.4 0 38.4 19.2 38.4 38.4s-19.2 38.4-38.4 38.4-38.4-19.2-38.4-38.4 16-38.4 38.4-38.4z" p-id="6478"></path><path d="M633.6 416m-16 0a16 16 0 1 0 32 0 16 16 0 1 0-32 0Z" p-id="6479"></path><path d="M441.6 518.4h9.6c3.2-3.2 6.4-3.2 12.8-3.2 3.2 0 9.6 3.2 12.8 3.2h9.6c3.2-3.2 6.4-3.2 12.8-3.2s9.6 3.2 12.8 3.2h9.6c3.2-3.2 6.4-3.2 12.8-3.2s9.6 3.2 12.8 3.2h9.6c3.2-3.2 6.4-3.2 12.8-3.2 3.2 0 9.6 3.2 12.8 3.2h9.6c-3.2-6.4-12.8-12.8-19.2-12.8-6.4 0-12.8 3.2-16 6.4-3.2-3.2-9.6-6.4-16-6.4s-25.6 3.2-28.8 6.4c-3.2-3.2-9.6-6.4-16-6.4s-12.8 3.2-16 6.4c-3.2-3.2-9.6-6.4-16-6.4-9.6 0-16 6.4-22.4 12.8zM320 588.8h384v64H320zM320 672h384v16H320zM320 704h384v16H320zM320 736h384v16H320zM134.4 307.2h16v16c0 3.2 3.2 6.4 6.4 6.4s6.4-3.2 6.4-6.4v-16h16c9.6 0 12.8-3.2 12.8-9.6 0-3.2-3.2-6.4-6.4-6.4h-19.2v-16c0-3.2-3.2-6.4-6.4-6.4s-6.4 3.2-6.4 6.4v16h-19.2c-3.2 0-6.4 3.2-6.4 6.4 0 6.4 3.2 9.6 6.4 9.6zM774.4 201.6h32v32c0 3.2 3.2 6.4 6.4 6.4s6.4-3.2 6.4-6.4v-32h32c9.6 0 12.8-3.2 12.8-9.6 0-3.2-3.2-6.4-6.4-6.4h-32v-32c0-3.2-3.2-6.4-6.4-6.4s-6.4 3.2-6.4 6.4v32h-32c-9.6 0-12.8 3.2-12.8 6.4 0 6.4 3.2 9.6 6.4 9.6zM422.4 176c12.8 0 25.6-9.6 25.6-25.6s-12.8-22.4-25.6-22.4-25.6 9.6-25.6 25.6 12.8 22.4 25.6 22.4z m0-32c3.2 0 6.4 3.2 6.4 6.4s-3.2 9.6-6.4 9.6-6.4-3.2-6.4-6.4 3.2-9.6 6.4-9.6zM160 550.4c0 19.2 12.8 32 32 32s32-12.8 32-32-12.8-32-32-32-32 12.8-32 32z m48 0c0 9.6-6.4 16-16 16s-16-6.4-16-16 6.4-16 16-16 16 6.4 16 16z" p-id="6480"></path></svg>